<svg class="SHRD__sc-sr6s0j-0 gwcoTh" xmlns="http://www.w3.org/2000/svg" width="32" height="32" viewBox="0 0 32 32"><path d="M25.155 31.333h-.006c-.456 0-.884-.121-1.253-.333l.012.006-7.827-4.42-7.844 4.42a2.533 2.533 0 0 1-3.664-2.929l-.005.018 2.3-7.629a.2.2 0 0 0-.052-.203l-5.404-5.41a2.482 2.482 0 0 1-.754-1.786c0-.327.063-.64.178-.927l-.006.017a2.511 2.511 0 0 1 2.225-1.625h.006l7.157-.373a.199.199 0 0 0 .168-.121V10.002l3.943-8.205A1.972 1.972 0 0 1 16.11.667h.014-.001a1.968 1.968 0 0 1 1.789 1.152l.005.012 3.832 8.153c.028.081.099.14.185.151h.001l7.157.373a2.535 2.535 0 0 1 1.66 4.321l-5.41 5.404a.2.2 0 0 0-.046.205v-.001l2.283 7.611a2.533 2.533 0 0 1-2.422 3.261zM12.529 10.986a2.515 2.515 0 0 1-2.172 1.496h-.006l-7.157.379h-.008a.179.179 0 0 0-.172.127v.001a.184.184 0 0 0 .047.215l5.404 5.404a2.524 2.524 0 0 1 .63 2.534l.005-.018-2.283 7.617a.182.182 0 0 0 .064.215h.001a.176.176 0 0 0 .228 0l8.403-4.735a1.163 1.163 0 0 1 1.17.003l-.006-.003 8.403 4.735a.173.173 0 0 0 .222 0 .175.175 0 0 0 .069-.217v.001l-2.306-7.611a2.521 2.521 0 0 1 .635-2.522l5.404-5.404a.184.184 0 0 0 .046-.216v.001a.18.18 0 0 0-.173-.128h-.008l-7.157-.379a2.508 2.508 0 0 1-2.178-1.498l-.006-.016-3.494-7.512z"></path></svg>